<?xml version="1.0" encoding="UTF-8"?>
<svg xmlns="http://www.w3.org/2000/svg" viewBox="0 0 1116 2138.4" role="img" aria-labelledby="title desc">
  <title id="title">Daniel Higgsfield ASCII capped walk frame 17 of 60</title>
  <desc id="desc">One chronological frame from the natural Higgsfield capped walk, converted with the locked B2 Chafa treatment.</desc>
  <g fill="#34322d" font-family="Courier New, Courier, monospace" font-size="10" font-weight="400" letter-spacing="0.2" xml:space="preserve" style="white-space:pre;font-variant-ligatures:none">
  <text x="508.4" y="41.3">,,</text>
  <text x="471.2" y="52.1">,x#####@#xx,</text>
  <text x="452.6" y="62.9">x####@######@##@#x,</text>
  <text x="440.2" y="73.7">########@#########,###x</text>
  <text x="427.8" y="84.5">x########@@#@###@@@##@##@#x</text>
  <text x="421.6" y="95.3">x############@@#######X@#####</text>
  <text x="421.6" y="106.1">#####@@@###@##########</text>
  <text x="564.2" y="106.1">#######</text>
  <text x="415.4" y="116.9">#@################@####</text>
  <text x="564.2" y="116.9">########</text>
  <text x="415.4" y="127.7">@@XX#########xXX@@@####=########,</text>
  <text x="384.4" y="138.5">,x####@#@##@####@##@######x@@#@###@###</text>
  <text x="365.8" y="149.3">x#######@#X@@@@############@@</text>
  <text x="551.8" y="149.3">X##x@@@@#@#</text>
  <text x="353.4" y="160.1">x######@@###</text>
  <text x="489.8" y="160.1">.x</text>
  <text x="558.0" y="160.1">X#@###x@@@</text>
  <text x="353.4" y="170.9">###@########</text>
  <text x="440.2" y="170.9">=</text>
  <text x="452.6" y="170.9">.</text>
  <text x="502.2" y="170.9">=</text>
  <text x="514.6" y="170.9">=</text>
  <text x="558.0" y="170.9">X@@@@#####</text>
  <text x="365.8" y="181.7">@###@#@###</text>
  <text x="446.4" y="181.7">,##</text>
  <text x="564.2" y="181.7">#@@@@</text>
  <text x="613.8" y="181.7">##,</text>
  <text x="396.8" y="192.5">.@###;</text>
  <text x="570.4" y="192.5">#X#,</text>
  <text x="613.8" y="192.5">#@</text>
  <text x="390.6" y="203.3">x##</text>
  <text x="415.4" y="203.3">###</text>
  <text x="570.4" y="203.3">#</text>
  <text x="613.8" y="203.3">#;</text>
  <text x="403.0" y="214.1">####</text>
  <text x="458.8" y="214.1">#</text>
  <text x="607.6" y="214.1">###x</text>
  <text x="415.4" y="224.9">##</text>
  <text x="458.8" y="224.9">=#,</text>
  <text x="601.4" y="224.9">#@#x</text>
  <text x="409.2" y="235.7">x###</text>
  <text x="589.0" y="235.7">#####</text>
  <text x="434.0" y="246.5">x</text>
  <text x="471.2" y="246.5">,,,,,,</text>
  <text x="582.8" y="246.5">X####@+</text>
  <text x="434.0" y="257.3">#,</text>
  <text x="458.8" y="257.3">=</text>
  <text x="582.8" y="257.3">X####,</text>
  <text x="440.2" y="268.1">@</text>
  <text x="477.4" y="268.1">==</text>
  <text x="558.0" y="268.1">.</text>
  <text x="589.0" y="268.1">$####,</text>
  <text x="446.4" y="278.9">:</text>
  <text x="589.0" y="278.9">$##</text>
  <text x="452.6" y="289.7">#</text>
  <text x="539.4" y="289.7">=</text>
  <text x="589.0" y="289.7">$##</text>
  <text x="520.8" y="300.5">,x</text>
  <text x="471.2" y="311.3">xxxxx###</text>
  <text x="477.4" y="322.1">X@@##</text>
  <text x="613.8" y="322.1">,</text>
  <text x="483.6" y="332.9">X@</text>
  <text x="632.4" y="332.9">,,</text>
  <text x="477.4" y="343.7">=.</text>
  <text x="496.0" y="343.7">#</text>
  <text x="632.4" y="343.7">##</text>
  <text x="651.0" y="343.7">#</text>
  <text x="483.6" y="354.5">=</text>
  <text x="508.4" y="354.5">,</text>
  <text x="613.8" y="354.5">.#####x##=</text>
  <text x="483.6" y="365.3">x</text>
  <text x="601.4" y="365.3">x##########,</text>
  <text x="682.0" y="365.3">@X</text>
  <text x="700.6" y="365.3">,</text>
  <text x="471.2" y="376.1">x#@,</text>
  <text x="582.8" y="376.1">x####@##@@###@###x</text>
  <text x="719.2" y="376.1">x,</text>
  <text x="458.8" y="386.9">x#####</text>
  <text x="551.8" y="386.9">xx##@##@#########@@#@######</text>
  <text x="737.8" y="386.9">#x</text>
  <text x="434.0" y="397.7">,x#@################################@@###########x,</text>
  <text x="756.4" y="397.7">+</text>
  <text x="421.6" y="408.5">=#@x#</text>
  <text x="465.0" y="408.5">#@@###########@#######@#@##@@#####@#@##@#######,</text>
  <text x="409.2" y="419.3">#</text>
  <text x="427.8" y="419.3">x##@</text>
  <text x="465.0" y="419.3">,##@#@@######################@@#@####@##@####@##x</text>
  <text x="775.0" y="419.3">.</text>
  <text x="384.4" y="430.1">,=@</text>
  <text x="409.2" y="430.1">,####xx#@####@#@####@@########@@#@#@@###@@###@###@###@@#@@#,#</text>
  <text x="390.6" y="440.9">,x##@@##@#@#@##@###@@###@####@#@##@###@@@@##@@###@###@##@####@###</text>
  <text x="359.6" y="451.7">x</text>
  <text x="372.0" y="451.7">xx#########@#@###@#@@@####@#@@######@####@@######@@###@@@@##@#####</text>
  <text x="787.4" y="451.7">xx</text>
  <text x="359.6" y="462.5">#######@##@##@##@###@#@@##@######@######@@##@######@@@###@@@@@#@@@######</text>
  <text x="353.4" y="473.3">#@@##@##@#####@##@@#@#@##@#@@@#@#####@@##@@@@@##@@@##@@@##@######@@######x</text>
  <text x="347.2" y="484.1">$,#######@##############@@#@########@@@@#@#####@##@#@@@#@@####@#@@@#@#@##@,,</text>
  <text x="353.4" y="494.9">###########@###@#@##@@@###@@@@##@@###@####@@@@@#########@@@@@@@@####@###@#</text>
  <text x="818.4" y="494.9">;</text>
  <text x="347.2" y="505.7">######@##@#####@@#@#@###@@@@##@###@@@###@@######@@@@#@######@##@###@@##@###</text>
  <text x="818.4" y="505.7">#</text>
  <text x="334.8" y="516.5">#</text>
  <text x="347.2" y="516.5">#@@#@@#######@##@#@@####@##@###@##@######@##@@#@@#####@###@#@@###@###@##@#####</text>
  <text x="328.6" y="527.3">$,#####@###@######@#@@@@##########@@@####@#####@##@#@#@@######@##@@@###@##@#@#</text>
  <text x="818.4" y="527.3">+</text>
  <text x="328.6" y="538.1">#X###@###@#########@@@##@##########@@#########@@#@###########@#####@##@##@@@##,</text>
  <text x="328.6" y="548.9">@#@@#######@###@######@##@@##############@#@@###@#@##@#@###@#@####@###@@@######</text>
  <text x="837.0" y="548.9">,</text>
  <text x="322.4" y="559.7">#############@#####@########@#@#####@##@##@###@#@@###@@########@@@####@##@@@##@##</text>
  <text x="837.0" y="559.7">x</text>
  <text x="316.2" y="570.5">,@</text>
  <text x="334.8" y="570.5">#######@#######@###@@#@#####@#@@############@###@@@@@@#@#@####@####@############</text>
  <text x="322.4" y="581.3">#</text>
  <text x="334.8" y="581.3">#####@@#@###@@###@#@@@@@@@@@###@@@####@#@#@@###@@##@@@##@#######@############@###</text>
  <text x="310.0" y="592.1">#@#</text>
  <text x="334.8" y="592.1">#@@##@#####@######@#@@####@@##@#########@@#@####@@#######@@@#######@@@##@########;</text>
  <text x="849.4" y="592.1">+</text>
  <text x="303.8" y="602.9">,</text>
  <text x="316.2" y="602.9">##@@@@########@#@##@####@#@@####@####@##@#####@@@#@@#@@@#@@######@######@@#@@########</text>
  <text x="855.6" y="602.9">#</text>
  <text x="310.0" y="613.7">.#####@##################@@@@#############@@#@##@@##@#@@#@##@@###########@@############</text>
  <text x="855.6" y="613.7">=;</text>
  <text x="297.6" y="624.5">#</text>
  <text x="310.0" y="624.5">##@######@####@@@##@@#@@#@##@#@##############@@#@@####@@@@@#######@####@##@@############</text>
  <text x="861.8" y="624.5">=,</text>
  <text x="297.6" y="635.3">:</text>
  <text x="310.0" y="635.3">###@##@##@########@@@#@#@@########@##@@##@@####@@####@##@####@@@#####@###@##@@##@#####@#,</text>
  <text x="868.0" y="635.3">;</text>
  <text x="291.4" y="646.1">;</text>
  <text x="303.8" y="646.1">####@############@#####@####@#@##@########@###@#@#@@@@@#@#@###############################</text>
  <text x="874.2" y="646.1">,</text>
  <text x="285.2" y="656.9">,</text>
  <text x="297.6" y="656.9">###############@#@@#@####@@####@#@#######@@@#####@@@@@@##@@@@##@###@#@@@#####@#@##@#####@###</text>
  <text x="880.4" y="656.9">,</text>
  <text x="297.6" y="667.7">###############@###@###@#@####@@####@###@#@@@#########@@#@##@@@@#######@#######@#@#@######@#,</text>
  <text x="880.4" y="667.7">#</text>
  <text x="279.0" y="678.5">;</text>
  <text x="291.4" y="678.5">##########@##########@#######@#@#####@@@@#@##@#@@@@#@##@#@@@@@##@@######@####@@@####@#@#####@#</text>
  <text x="886.6" y="678.5">,</text>
  <text x="285.2" y="689.3">########@##@##@####@##@###@#@@@@###@@#####@####@##@#######@#####@@#@###@@##@@@###@@@##########@#</text>
  <text x="266.6" y="700.1">,</text>
  <text x="279.0" y="700.1">,#@##########@@@#@##@@####@######@#@@@@#@##@###@####@@#####@@@#@##@##@##@#@###@@@#@##@#@###@##@###</text>
  <text x="266.6" y="710.9">+</text>
  <text x="279.0" y="710.9">###@##@############</text>
  <text x="403.0" y="710.9">##@#@@@@@#@###@##@###@@@@@@@#@########@##@####@####@@@###@@@##@##@@@@##@@#####x</text>
  <text x="899.0" y="710.9">:</text>
  <text x="260.4" y="721.7">#</text>
  <text x="272.8" y="721.7">$##@@#@##@##########</text>
  <text x="403.0" y="721.7">#######@@#########@####@@#@@####@#############@@#@###@##############@##########</text>
  <text x="905.2" y="721.7">;</text>
  <text x="254.2" y="732.5">#</text>
  <text x="272.8" y="732.5">##@######@#####@####</text>
  <text x="403.0" y="732.5">#####@@#@#####@##@##@####@########@########@#@#@@@##</text>
  <text x="731.6" y="732.5">##@@##@###@@@#@@@######@##@</text>
  <text x="911.4" y="732.5">#</text>
  <text x="248.0" y="743.3">#</text>
  <text x="266.6" y="743.3">############@######@##@#@@#@#@@#@##@#@@#@###@##@@@#@@@@@@###@@@##@####@@@#</text>
  <text x="731.6" y="743.3">##</text>
  <text x="750.2" y="743.3">#@@####@#@###@#@####@######</text>
  <text x="241.8" y="754.1">=</text>
  <text x="272.8" y="754.1">X@######@#@@######@#$@#@@@##@###@###@##@@###@@@####@#######@#@@##@###@@##</text>
  <text x="731.6" y="754.1">##</text>
  <text x="750.2" y="754.1">#@#@#@#@@@#####</text>
  <text x="855.6" y="754.1">X##@#####</text>
  <text x="241.8" y="764.9">@</text>
  <text x="279.0" y="764.9">########@##########$##@#@#####@@#@@##@###@@@##@@#@#####@@###@##@@####@##</text>
  <text x="750.2" y="764.9">$#@@@######</text>
  <text x="861.8" y="764.9">@@@##=</text>
  <text x="248.0" y="775.7">#@#x##@###@######################@@##@@@#@@@########@@@#@@######@##@@@###@#@#</text>
  <text x="750.2" y="775.7">X@@#@#@</text>
  <text x="861.8" y="775.7">X#@</text>
  <text x="254.2" y="786.5">X###</text>
  <text x="297.6" y="786.5">###@@##@@####@@@###@#########@@##@@@@####@#@@@###@###@@#####@########</text>
  <text x="756.4" y="786.5">#####</text>
  <text x="861.8" y="786.5">$</text>
  <text x="316.2" y="797.3">###@########@###@@@@###@########@@#@###@#@@####@@@#######@@#@##@@#</text>
  <text x="756.4" y="797.3">X##@#</text>
  <text x="868.0" y="797.3">;</text>
  <text x="334.8" y="808.1">##@####@#@##############@@#####@#@##@@@##@####@######@@######,#</text>
  <text x="787.4" y="808.1">#</text>
  <text x="347.2" y="818.9">####@#######@#@####@####@#@##@#####@##@##@###@##@@#@#####@#,#</text>
  <text x="787.4" y="818.9">#</text>
  <text x="248.0" y="829.7">,</text>
  <text x="347.2" y="829.7">#@@@@##@#######@@@##@@@#######@##@@#######@@####@##########,#</text>
  <text x="793.6" y="829.7">,</text>
  <text x="241.8" y="840.5">,</text>
  <text x="341.0" y="840.5">,</text>
  <text x="390.6" y="840.5">###@@#####@@@#@#######@@#@@##@##########@#######@#####</text>
  <text x="793.6" y="840.5">;</text>
  <text x="241.8" y="851.3">#</text>
  <text x="390.6" y="851.3">#########@##@@@##############@#####@@#######@@@####@##x</text>
  <text x="241.8" y="862.1">+</text>
  <text x="384.4" y="862.1">.##########@###@@@########@##@##@######@@@@@@#@#@@@@#@</text>
  <text x="725.4" y="862.1">#</text>
  <text x="235.6" y="872.9">,</text>
  <text x="328.6" y="872.9">,</text>
  <text x="384.4" y="872.9">$@#########@@####@@@@@@##@@#@##@####@@@@@@@@####@###@#</text>
  <text x="725.4" y="872.9">#</text>
  <text x="880.4" y="872.9">+</text>
  <text x="322.4" y="883.7">,</text>
  <text x="384.4" y="883.7">$@@@####@####@#@@##@@########@@@######@@#@@@@@###@####x#</text>
  <text x="880.4" y="883.7">$</text>
  <text x="229.4" y="894.5">,</text>
  <text x="384.4" y="894.5">#############@####@@@####@########@@@@@@#x##@@##@@@#@#@#</text>
  <text x="799.8" y="894.5">#</text>
  <text x="880.4" y="894.5">$</text>
  <text x="229.4" y="905.3">;</text>
  <text x="384.4" y="905.3">####@######@#@###@####@@@##@#####@@@#########@####@#@###,</text>
  <text x="880.4" y="905.3">$</text>
  <text x="384.4" y="916.1">##@#@####@########@##@#@#########@@######@##@##@#@##@##</text>
  <text x="731.6" y="916.1">;</text>
  <text x="880.4" y="916.1">$</text>
  <text x="384.4" y="926.9">########@##@###@@@##############@#@@##@@@####@#######@#</text>
  <text x="806.0" y="926.9">$</text>
  <text x="880.4" y="926.9">$</text>
  <text x="384.4" y="937.7">###############@#####@###@##@@@@@@#@@#@@#@@##@##@@@###@#</text>
  <text x="880.4" y="937.7">$</text>
  <text x="217.0" y="948.5">,</text>
  <text x="285.2" y="948.5">.</text>
  <text x="378.2" y="948.5">,##############@#@##########@@@@@##@##@#@########@@######</text>
  <text x="812.2" y="948.5">$</text>
  <text x="279.0" y="959.3">.</text>
  <text x="378.2" y="959.3">#@##########@@@@@##@##@##@@@@###@#############@###@##@@#@#</text>
  <text x="818.4" y="959.3">#</text>
  <text x="378.2" y="970.1">####@######@#@#########@@@@####@@#@##@@@@@@@#####@##@###</text>
  <text x="731.6" y="970.1">#</text>
  <text x="818.4" y="970.1">#</text>
  <text x="378.2" y="980.9">#######@#@####@########@##@@@##@#@@@#####@#@@@#@@@@###@#</text>
  <text x="731.6" y="980.9">#</text>
  <text x="824.6" y="980.9">,</text>
  <text x="378.2" y="991.7">$@@######@@@##@@@#####@@####@#@@@#@@#@#@@#@###@####@###@#,</text>
  <text x="824.6" y="991.7">#</text>
  <text x="886.6" y="991.7">;</text>
  <text x="378.2" y="1002.5">#@#@@@###@#@@###@###@@##@#@#@@@#######@######@@###@#@@##</text>
  <text x="731.6" y="1002.5">#</text>
  <text x="824.6" y="1002.5">=</text>
  <text x="886.6" y="1002.5">#</text>
  <text x="248.0" y="1013.3">+</text>
  <text x="378.2" y="1013.3">##@####@##########@@@@#@@@#####@@#####@#@@##@#@#####@###</text>
  <text x="731.6" y="1013.3">#</text>
  <text x="886.6" y="1013.3">#</text>
  <text x="378.2" y="1024.1">######@##@######@#@@#########@@@#####@@######@############</text>
  <text x="886.6" y="1024.1">;</text>
  <text x="378.2" y="1034.9">##@##@#@#@@####@@@####@##@##@@#@@###@#@@####@#####@@#@@#</text>
  <text x="731.6" y="1034.9">#</text>
  <text x="830.8" y="1034.9">$</text>
  <text x="229.4" y="1045.7">#</text>
  <text x="378.2" y="1045.7">@#@@@##@#@@@@@@#@######@#@######@#@@@@#####@#########@@#</text>
  <text x="731.6" y="1045.7">#</text>
  <text x="378.2" y="1056.5">#####@@#@#####@######@@######@#@####@@#@###@@#@####@##@#</text>
  <text x="731.6" y="1056.5">#</text>
  <text x="378.2" y="1067.3">########@###@#@#######@@@########@#@###@@@#####@###@@###</text>
  <text x="731.6" y="1067.3">#</text>
  <text x="378.2" y="1078.1">######@#####@#@@@##@@@#@##@@##@#@#######@@####@####@#@@#</text>
  <text x="229.4" y="1088.9">=</text>
  <text x="372.0" y="1088.9">#@@##@###@@#@#@###@##@##########@####@#####@#@##@@###@###</text>
  <text x="892.8" y="1088.9">$</text>
  <text x="148.8" y="1099.7">$</text>
  <text x="372.0" y="1099.7">#</text>
  <text x="384.4" y="1099.7">####@#######@####@@#@####</text>
  <text x="551.8" y="1099.7">#@#@@##@@##@##@@@###@@@@@#@#</text>
  <text x="731.6" y="1099.7">$</text>
  <text x="892.8" y="1099.7">$</text>
  <text x="142.6" y="1110.5">;</text>
  <text x="186.0" y="1110.5">+</text>
  <text x="372.0" y="1110.5">$</text>
  <text x="384.4" y="1110.5">#@@@@########@#@@###</text>
  <text x="539.4" y="1110.5">,</text>
  <text x="564.2" y="1110.5">@@</text>
  <text x="595.2" y="1110.5">#@@@#@@#@@#@#########</text>
  <text x="731.6" y="1110.5">#</text>
  <text x="179.8" y="1121.3">#</text>
  <text x="210.8" y="1121.3">,</text>
  <text x="372.0" y="1121.3">X##@########@##@#####</text>
  <text x="508.4" y="1121.3">######,</text>
  <text x="558.0" y="1121.3">,,</text>
  <text x="576.6" y="1121.3">####@@@##@@@#@########,</text>
  <text x="731.6" y="1121.3">#</text>
  <text x="173.6" y="1132.1">##</text>
  <text x="372.0" y="1132.1">$@##@##@##@#@#@#@#</text>
  <text x="496.0" y="1132.1">x#,,xx##=</text>
  <text x="564.2" y="1132.1">$@</text>
  <text x="582.8" y="1132.1">@@X</text>
  <text x="638.6" y="1132.1">@###@####@####</text>
  <text x="731.6" y="1132.1">#</text>
  <text x="818.4" y="1132.1">,</text>
  <text x="899.0" y="1132.1">$</text>
  <text x="167.4" y="1142.9">###</text>
  <text x="204.6" y="1142.9">+</text>
  <text x="372.0" y="1142.9">#@#####@##@###@</text>
  <text x="471.2" y="1142.9">$</text>
  <text x="496.0" y="1142.9">@</text>
  <text x="539.4" y="1142.9">,</text>
  <text x="564.2" y="1142.9">###@##</text>
  <text x="607.6" y="1142.9">=@###@#x#@##@@#@###x#</text>
  <text x="818.4" y="1142.9">#</text>
  <text x="173.6" y="1153.7">#</text>
  <text x="378.2" y="1153.7">#@@#@#####X###</text>
  <text x="471.2" y="1153.7">#xx###=@@@#X</text>
  <text x="551.8" y="1153.7">,</text>
  <text x="601.4" y="1153.7">,,###@@</text>
  <text x="651.0" y="1153.7">##@</text>
  <text x="675.8" y="1153.7">#@####@#</text>
  <text x="818.4" y="1153.7">#</text>
  <text x="905.2" y="1153.7">$</text>
  <text x="167.4" y="1164.5">##x</text>
  <text x="198.4" y="1164.5">,</text>
  <text x="372.0" y="1164.5">,##@@#@@@@#</text>
  <text x="446.4" y="1164.5">@###@</text>
  <text x="483.6" y="1164.5">#</text>
  <text x="589.0" y="1164.5">=</text>
  <text x="613.8" y="1164.5">X##</text>
  <text x="651.0" y="1164.5">@</text>
  <text x="669.6" y="1164.5">##@####</text>
  <text x="173.6" y="1175.3">#@##@=x,</text>
  <text x="378.2" y="1175.3">@</text>
  <text x="390.6" y="1175.3">X#@@@@@####@##@#</text>
  <text x="651.0" y="1175.3">@</text>
  <text x="669.6" y="1175.3">=@@##</text>
  <text x="843.2" y="1175.3">,</text>
  <text x="911.4" y="1175.3">;</text>
  <text x="155.0" y="1186.1">,</text>
  <text x="217.0" y="1186.1">,</text>
  <text x="396.8" y="1186.1">#@@@@@##</text>
  <text x="452.6" y="1186.1">,#@#</text>
  <text x="502.2" y="1186.1">=+</text>
  <text x="551.8" y="1186.1">x,</text>
  <text x="620.0" y="1186.1">xx,##@=x</text>
  <text x="675.8" y="1186.1">x##;</text>
  <text x="818.4" y="1186.1">$</text>
  <text x="843.2" y="1186.1">,</text>
  <text x="173.6" y="1196.9">,</text>
  <text x="192.2" y="1196.9">,</text>
  <text x="210.8" y="1196.9">,#</text>
  <text x="396.8" y="1196.9">###@####x#@#</text>
  <text x="489.8" y="1196.9">#x,</text>
  <text x="551.8" y="1196.9">.#@@#x#x,</text>
  <text x="613.8" y="1196.9">$###@#</text>
  <text x="675.8" y="1196.9">@@#</text>
  <text x="818.4" y="1196.9">=</text>
  <text x="843.2" y="1196.9">@,</text>
  <text x="892.8" y="1196.9">#</text>
  <text x="198.4" y="1207.7">=</text>
  <text x="396.8" y="1207.7">:</text>
  <text x="415.4" y="1207.7">##@#@@@#@+</text>
  <text x="620.0" y="1207.7">+</text>
  <text x="675.8" y="1207.7">#@#</text>
  <text x="824.6" y="1207.7">#</text>
  <text x="849.4" y="1207.7">#</text>
  <text x="892.8" y="1207.7">#</text>
  <text x="396.8" y="1218.5">#</text>
  <text x="409.2" y="1218.5">x#######</text>
  <text x="514.6" y="1218.5">==</text>
  <text x="613.8" y="1218.5">,</text>
  <text x="626.2" y="1218.5">,</text>
  <text x="669.6" y="1218.5">####</text>
  <text x="830.8" y="1218.5">,</text>
  <text x="849.4" y="1218.5">#</text>
  <text x="892.8" y="1218.5">#</text>
  <text x="396.8" y="1229.3">$</text>
  <text x="415.4" y="1229.3">@@#@@##x</text>
  <text x="595.2" y="1229.3">x</text>
  <text x="607.6" y="1229.3">.#@#</text>
  <text x="663.4" y="1229.3">####</text>
  <text x="830.8" y="1229.3">#,#</text>
  <text x="892.8" y="1229.3">#</text>
  <text x="421.6" y="1240.1">#X##</text>
  <text x="607.6" y="1240.1">##</text>
  <text x="663.4" y="1240.1">##@#</text>
  <text x="849.4" y="1240.1">#</text>
  <text x="886.6" y="1240.1">x</text>
  <text x="403.0" y="1250.9">;</text>
  <text x="421.6" y="1250.9">###@</text>
  <text x="632.4" y="1250.9">#@</text>
  <text x="657.2" y="1250.9">####</text>
  <text x="837.0" y="1250.9">.@</text>
  <text x="868.0" y="1250.9">#X#</text>
  <text x="403.0" y="1261.7">;</text>
  <text x="427.8" y="1261.7">##</text>
  <text x="607.6" y="1261.7">#x##</text>
  <text x="651.0" y="1261.7">x##@#</text>
  <text x="855.6" y="1261.7">##@</text>
  <text x="403.0" y="1272.5">#</text>
  <text x="421.6" y="1272.5">#@</text>
  <text x="440.2" y="1272.5">,,</text>
  <text x="613.8" y="1272.5">X#</text>
  <text x="651.0" y="1272.5">##@#</text>
  <text x="403.0" y="1283.3">$</text>
  <text x="427.8" y="1283.3">$</text>
  <text x="607.6" y="1283.3">x#</text>
  <text x="644.8" y="1283.3">#@#@@</text>
  <text x="564.2" y="1294.1">+</text>
  <text x="595.2" y="1294.1">,#=</text>
  <text x="638.6" y="1294.1">###</text>
  <text x="669.6" y="1294.1">#</text>
  <text x="409.2" y="1304.9">,</text>
  <text x="595.2" y="1304.9">#</text>
  <text x="607.6" y="1304.9">+</text>
  <text x="620.0" y="1304.9">#</text>
  <text x="632.4" y="1304.9">###</text>
  <text x="409.2" y="1315.7">#</text>
  <text x="421.6" y="1315.7">@</text>
  <text x="613.8" y="1315.7">$</text>
  <text x="632.4" y="1315.7">##</text>
  <text x="663.4" y="1315.7">#</text>
  <text x="409.2" y="1326.5">$</text>
  <text x="545.6" y="1326.5">.,=</text>
  <text x="613.8" y="1326.5">#</text>
  <text x="626.2" y="1326.5">##</text>
  <text x="663.4" y="1326.5">#</text>
  <text x="409.2" y="1337.3">#</text>
  <text x="582.8" y="1337.3">#,</text>
  <text x="607.6" y="1337.3">.</text>
  <text x="620.0" y="1337.3">X#</text>
  <text x="582.8" y="1348.1">#</text>
  <text x="607.6" y="1348.1">#</text>
  <text x="657.2" y="1348.1">#</text>
  <text x="403.0" y="1358.9">;</text>
  <text x="415.4" y="1358.9">#</text>
  <text x="607.6" y="1358.9">#</text>
  <text x="657.2" y="1358.9">;</text>
  <text x="415.4" y="1369.7">=</text>
  <text x="601.4" y="1369.7">#@</text>
  <text x="651.0" y="1369.7">$</text>
  <text x="396.8" y="1380.5">#</text>
  <text x="440.2" y="1380.5">x</text>
  <text x="576.6" y="1380.5">=</text>
  <text x="595.2" y="1380.5">##</text>
  <text x="651.0" y="1380.5">#x</text>
  <text x="390.6" y="1391.3">,</text>
  <text x="576.6" y="1391.3">x#</text>
  <text x="651.0" y="1391.3">##,</text>
  <text x="390.6" y="1402.1">$</text>
  <text x="527.0" y="1402.1">.</text>
  <text x="558.0" y="1402.1">#</text>
  <text x="570.4" y="1402.1">,@@</text>
  <text x="644.8" y="1402.1">####</text>
  <text x="558.0" y="1412.9">##,##,</text>
  <text x="644.8" y="1412.9">#####</text>
  <text x="533.2" y="1423.7">@#</text>
  <text x="570.4" y="1423.7">@##</text>
  <text x="638.6" y="1423.7">$#@###</text>
  <text x="601.4" y="1434.5">,</text>
  <text x="638.6" y="1434.5">###@#</text>
  <text x="378.2" y="1445.3">,</text>
  <text x="632.4" y="1445.3">x##@##</text>
  <text x="378.2" y="1456.1">#</text>
  <text x="632.4" y="1456.1">#</text>
  <text x="644.8" y="1456.1">X@#</text>
  <text x="378.2" y="1466.9">#</text>
  <text x="452.6" y="1466.9">=</text>
  <text x="483.6" y="1466.9">,,</text>
  <text x="632.4" y="1466.9">#x</text>
  <text x="657.2" y="1466.9">#</text>
  <text x="372.0" y="1477.7">$#</text>
  <text x="508.4" y="1477.7">,</text>
  <text x="545.6" y="1477.7">,</text>
  <text x="626.2" y="1477.7">####,</text>
  <text x="663.4" y="1477.7">Xx</text>
  <text x="378.2" y="1488.5">#@</text>
  <text x="539.4" y="1488.5">##</text>
  <text x="626.2" y="1488.5">##@@@#</text>
  <text x="675.8" y="1488.5">+</text>
  <text x="372.0" y="1499.3">#@#</text>
  <text x="452.6" y="1499.3">+#,</text>
  <text x="551.8" y="1499.3">=+</text>
  <text x="620.0" y="1499.3">x#@@@@##,</text>
  <text x="365.8" y="1510.1">####</text>
  <text x="452.6" y="1510.1">=</text>
  <text x="620.0" y="1510.1">#########,</text>
  <text x="365.8" y="1520.9">####,</text>
  <text x="452.6" y="1520.9">xx,</text>
  <text x="539.4" y="1520.9">.</text>
  <text x="613.8" y="1520.9">##@@#######,</text>
  <text x="365.8" y="1531.7">#@@@,</text>
  <text x="452.6" y="1531.7">+</text>
  <text x="465.0" y="1531.7">@##</text>
  <text x="613.8" y="1531.7">##@##@@@@@@@#</text>
  <text x="365.8" y="1542.5">##@@@</text>
  <text x="452.6" y="1542.5">x,@@#,</text>
  <text x="613.8" y="1542.5">##</text>
  <text x="632.4" y="1542.5">@@@@@@#@@@,</text>
  <text x="365.8" y="1553.3">#@@@@</text>
  <text x="458.8" y="1553.3">#@#x,</text>
  <text x="570.4" y="1553.3">x</text>
  <text x="607.6" y="1553.3">##@@##@@@######</text>
  <text x="359.6" y="1564.1">#@@@#</text>
  <text x="465.0" y="1564.1">@#x@</text>
  <text x="607.6" y="1564.1">##@#@##@</text>
  <text x="669.6" y="1564.1">X##@@</text>
  <text x="359.6" y="1574.9">#@#@#</text>
  <text x="465.0" y="1574.9">X#</text>
  <text x="527.0" y="1574.9">#,</text>
  <text x="601.4" y="1574.9">#@#@##X@@#</text>
  <text x="688.2" y="1574.9">=X</text>
  <text x="347.2" y="1585.7">##@###@,</text>
  <text x="471.2" y="1585.7">,</text>
  <text x="489.8" y="1585.7">+</text>
  <text x="601.4" y="1585.7">######x##@#x</text>
  <text x="347.2" y="1596.5">###@@@#</text>
  <text x="465.0" y="1596.5">=#@@#;</text>
  <text x="595.2" y="1596.5">########X####x</text>
  <text x="341.0" y="1607.3">x###@@@#</text>
  <text x="471.2" y="1607.3">x</text>
  <text x="483.6" y="1607.3">@#</text>
  <text x="527.0" y="1607.3">x</text>
  <text x="595.2" y="1607.3">########@@@@@@@</text>
  <text x="341.0" y="1618.1">#@@###@#</text>
  <text x="471.2" y="1618.1">,</text>
  <text x="527.0" y="1618.1">x</text>
  <text x="589.0" y="1618.1">$########@@@@@@##</text>
  <text x="341.0" y="1628.9">X@@##@@##</text>
  <text x="483.6" y="1628.9">=</text>
  <text x="508.4" y="1628.9">x</text>
  <text x="589.0" y="1628.9">#@@@@@##@#</text>
  <text x="657.2" y="1628.9">#@@@@X,</text>
  <text x="334.8" y="1639.7">##@@#@@@##</text>
  <text x="489.8" y="1639.7">,</text>
  <text x="589.0" y="1639.7">#@#@@#@@###X#@@@@@</text>
  <text x="334.8" y="1650.5">##@####@##,</text>
  <text x="483.6" y="1650.5">x#</text>
  <text x="582.8" y="1650.5">##@@@@@@@@##</text>
  <text x="663.4" y="1650.5">@@@###</text>
  <text x="737.8" y="1650.5">.</text>
  <text x="334.8" y="1661.3">#</text>
  <text x="353.4" y="1661.3">#</text>
  <text x="396.8" y="1661.3">#</text>
  <text x="496.0" y="1661.3">@</text>
  <text x="582.8" y="1661.3">#@@#@########X###@@@.=</text>
  <text x="328.6" y="1672.1">##xx#,,,,,#,</text>
  <text x="576.6" y="1672.1">$#@@###@@@@@######@</text>
  <text x="700.6" y="1672.1">,</text>
  <text x="328.6" y="1682.9">@#</text>
  <text x="347.2" y="1682.9">#@@@@@##@@x,,</text>
  <text x="496.0" y="1682.9">x,</text>
  <text x="576.6" y="1682.9">#@####@@@##@@X,x=</text>
  <text x="688.2" y="1682.9">@@@,</text>
  <text x="737.8" y="1682.9">,x</text>
  <text x="328.6" y="1693.7">##</text>
  <text x="347.2" y="1693.7">@@#####</text>
  <text x="396.8" y="1693.7">X#</text>
  <text x="458.8" y="1693.7">=#</text>
  <text x="496.0" y="1693.7">+</text>
  <text x="508.4" y="1693.7">@xx</text>
  <text x="576.6" y="1693.7">#@@##@@X####@@#@</text>
  <text x="694.4" y="1693.7">@@#x##@</text>
  <text x="316.2" y="1704.5">x#x,,,</text>
  <text x="390.6" y="1704.5">=#</text>
  <text x="434.0" y="1704.5">.,##=+,</text>
  <text x="508.4" y="1704.5">=@,</text>
  <text x="539.4" y="1704.5">#+x</text>
  <text x="570.4" y="1704.5">######@@@#@#@@@#######@</text>
  <text x="737.8" y="1704.5">:</text>
  <text x="322.4" y="1715.3">#############,,,</text>
  <text x="440.2" y="1715.3">,</text>
  <text x="533.2" y="1715.3">,#</text>
  <text x="570.4" y="1715.3">#@@@@@@@#####@@@@###@</text>
  <text x="341.0" y="1726.1">=@@####X@@########x##xx,,,</text>
  <text x="533.2" y="1726.1">=</text>
  <text x="545.6" y="1726.1">#</text>
  <text x="570.4" y="1726.1">######@=</text>
  <text x="651.0" y="1726.1">@####@</text>
  <text x="365.8" y="1736.9">@##</text>
  <text x="446.4" y="1736.9">X@##@#@####xx,</text>
  <text x="564.2" y="1736.9">#</text>
  <text x="657.2" y="1736.9">@@@,</text>
  <text x="471.2" y="1747.7">#@#############</text>
  <text x="663.4" y="1747.7">#,</text>
  <text x="750.2" y="1747.7">.</text>
  <text x="465.0" y="1758.5">###@@@@@@@####@</text>
  <text x="669.6" y="1758.5">#</text>
  <text x="527.0" y="1769.3">X@@@</text>
  <text x="675.8" y="1769.3">,</text>
  <text x="458.8" y="1780.1">+</text>
  <text x="682.0" y="1780.1">,</text>
  <text x="682.0" y="1790.9">$</text>
  <text x="750.2" y="1790.9">,#,</text>
  <text x="688.2" y="1801.7">#</text>
  <text x="719.2" y="1801.7">,x###@##</text>
  <text x="688.2" y="1812.5">=#########@</text>
  <text x="762.6" y="1812.5">X,</text>
  <text x="359.6" y="1823.3">###x,</text>
  <text x="694.4" y="1823.3">####@</text>
  <text x="744.0" y="1823.3">,x#@@</text>
  <text x="353.4" y="1834.1">###@#####,</text>
  <text x="700.6" y="1834.1">x,x###@</text>
  <text x="762.6" y="1834.1">,x#</text>
  <text x="353.4" y="1844.9">#,,</text>
  <text x="384.4" y="1844.9">@@@######</text>
  <text x="700.6" y="1844.9">@</text>
  <text x="725.4" y="1844.9">,,x##@</text>
  <text x="372.0" y="1855.7">@#,</text>
  <text x="409.2" y="1855.7">@@##</text>
  <text x="706.8" y="1855.7">##@</text>
  <text x="762.6" y="1855.7">,x##</text>
  <text x="347.2" y="1866.5">##x,</text>
  <text x="396.8" y="1866.5">#x,</text>
  <text x="421.6" y="1866.5">@@</text>
  <text x="706.8" y="1866.5">$xxx###@</text>
  <text x="781.2" y="1866.5">#</text>
  <text x="341.0" y="1877.3">,,</text>
  <text x="378.2" y="1877.3">##,</text>
  <text x="415.4" y="1877.3">@#</text>
  <text x="713.0" y="1877.3">@,,,,,,xx##@</text>
  <text x="353.4" y="1888.1">@#x,</text>
  <text x="396.8" y="1888.1">@#x,</text>
  <text x="713.0" y="1888.1">@</text>
  <text x="781.2" y="1888.1">,#</text>
  <text x="334.8" y="1898.9">#=xx</text>
  <text x="378.2" y="1898.9">@x,</text>
  <text x="409.2" y="1898.9">X@</text>
  <text x="713.0" y="1898.9">#@</text>
  <text x="744.0" y="1898.9">==</text>
  <text x="768.8" y="1898.9">=X</text>
  <text x="793.6" y="1898.9">##+</text>
  <text x="272.8" y="1909.7">,,,</text>
  <text x="328.6" y="1909.7">x,</text>
  <text x="359.6" y="1909.7">=#,</text>
  <text x="396.8" y="1909.7">@##</text>
  <text x="682.0" y="1909.7">,,,</text>
  <text x="706.8" y="1909.7">#@##x,</text>
  <text x="756.4" y="1909.7">==xx#=X#</text>
  <text x="812.2" y="1909.7">#</text>
  <text x="266.6" y="1920.5">#@</text>
  <text x="291.4" y="1920.5">@x,x##</text>
  <text x="347.2" y="1920.5">=x,</text>
  <text x="378.2" y="1920.5">@#,</text>
  <text x="409.2" y="1920.5">#</text>
  <text x="669.6" y="1920.5">#@</text>
  <text x="688.2" y="1920.5">X########,</text>
  <text x="793.6" y="1920.5">#</text>
  <text x="806.0" y="1920.5">x##</text>
  <text x="266.6" y="1931.3">@@##########</text>
  <text x="365.8" y="1931.3">@,</text>
  <text x="396.8" y="1931.3">@#</text>
  <text x="669.6" y="1931.3">##############x,</text>
  <text x="799.8" y="1931.3">x###</text>
  <text x="260.4" y="1942.1">,x###########,</text>
  <text x="378.2" y="1942.1">@x,</text>
  <text x="403.0" y="1942.1">$</text>
  <text x="675.8" y="1942.1">x####@##############@###</text>
  <text x="167.4" y="1952.9">,xxxx,,,,xx#####@#@##########,</text>
  <text x="396.8" y="1952.9">@+</text>
  <text x="663.4" y="1952.9">###@####@###########@###@#,</text>
  <text x="155.0" y="1963.7">x##@@########################@##,</text>
  <text x="384.4" y="1963.7">=###</text>
  <text x="651.0" y="1963.7">#########@##########@##@##@#;</text>
  <text x="155.0" y="1974.5">######@@#@#@######@##@############</text>
  <text x="396.8" y="1974.5">##</text>
  <text x="632.4" y="1974.5">,######@#############@#####@####</text>
  <text x="148.8" y="1985.3">#####@#@@#x@@#####@@####@@@######@###x,</text>
  <text x="403.0" y="1985.3">x##</text>
  <text x="613.8" y="1985.3">,x####@#@#####@@@@######@###@@@@###,</text>
  <text x="148.8" y="1996.1">@########x,@##@@#@#@##@#@#@####@###@#######@</text>
  <text x="595.2" y="1996.1">,###@###@###@#############@@X####@####,</text>
  <text x="161.2" y="2006.9">@@@#########@###@@@###@@#################</text>
  <text x="582.8" y="2006.9">######@@###@###@##@##@@Xx###@@####@#####;</text>
  <text x="179.8" y="2017.7">@#@@#####@@@@#####@@@##############@@#</text>
  <text x="576.6" y="2017.7">#@@@@@@@@@@@@@@@@@X###########@##@####@</text>
  <text x="930.0" y="2017.7">,</text>
  <text x="948.6" y="2017.7">xx</text>
  <text x="198.4" y="2028.5">@#@######@@#########@@@###@##@#####</text>
  <text x="576.6" y="2028.5">##@#@@@@@@@#########@####@#@##@#@@Xxxxxx###########</text>
  <text x="223.2" y="2039.3">@#@#####@@@############@@@@@##@</text>
  <text x="576.6" y="2039.3">#####@##################@@@###########xx.</text>
  <text x="248.0" y="2050.1">@##@##@@#@#######@#########</text>
  <text x="576.6" y="2050.1">######################@@===</text>
  <text x="279.0" y="2060.9">@@#@#####@@##@#######@</text>
  <text x="545.6" y="2060.9">,,,,,,,,,.</text>
  <text x="613.8" y="2060.9">=====</text>
  <text x="316.2" y="2071.7">@@##@###@####@#</text>
  <text x="446.4" y="2071.7">xx=###############=======</text>
  <text x="353.4" y="2082.5">,@####################@@@===</text>
  <text x="241.8" y="2093.3">,,,xxxx##########@##########@@X</text>
  <text x="223.2" y="2104.1">X###############@@</text>
  </g>
</svg>
