<?xml version="1.0" encoding="UTF-8"?>
<svg xmlns="http://www.w3.org/2000/svg" viewBox="0 0 744 550.8" role="img" aria-labelledby="title desc">
  <title id="title">ASCII laptop animation frame 23 of 60</title>
  <desc id="desc">Source video frame 44; registered 120-column true-space laptop ASCII.</desc>
  <g fill="#34322d" font-family="Courier New, Courier, monospace" font-size="10" font-weight="400" letter-spacing="0.2" xml:space="preserve" style="white-space:pre;font-variant-ligatures:none">
  <text x="179.8" y="95.3">.</text>
  <text x="173.6" y="116.9">.</text>
  <text x="173.6" y="127.7">...</text>
  <text x="167.4" y="138.5">......</text>
  <text x="167.4" y="149.3">.......</text>
  <text x="161.2" y="160.1">..........</text>
  <text x="161.2" y="170.9">.........</text>
  <text x="155.0" y="181.7">..........</text>
  <text x="155.0" y="192.5">...........</text>
  <text x="638.6" y="192.5">.</text>
  <text x="148.8" y="203.3">..............</text>
  <text x="148.8" y="214.1">...............</text>
  <text x="378.2" y="214.1">;=</text>
  <text x="142.6" y="224.9">.................</text>
  <text x="347.2" y="224.9">,;=;;=;;</text>
  <text x="136.4" y="235.7">..................</text>
  <text x="341.0" y="235.7">=xxxxxxx=,</text>
  <text x="136.4" y="246.5">...................</text>
  <text x="334.8" y="246.5">.xxxxxxxx</text>
  <text x="130.2" y="257.3">......................</text>
  <text x="334.8" y="257.3">.xxxxxxxx=</text>
  <text x="130.2" y="268.1">.......................</text>
  <text x="341.0" y="268.1">;xxxxxxx;</text>
  <text x="124.0" y="278.9">......,....................</text>
  <text x="347.2" y="278.9">..</text>
  <text x="372.0" y="278.9">,:</text>
  <text x="626.2" y="278.9">.</text>
  <text x="124.0" y="289.7">..,,,.,,....................</text>
  <text x="626.2" y="289.7">.</text>
  <text x="117.8" y="300.5">.,,,,,,,......................</text>
  <text x="117.8" y="311.3">.,,,,,,,,,,........................</text>
  <text x="117.8" y="322.1">.,,,,,,,,,,,.......................</text>
  <text x="111.6" y="332.9">.,,,,,,,,,,,,,.,.....................</text>
  <text x="105.4" y="343.7">.,,,,,,,,,,,,,,,,......................</text>
  <text x="105.4" y="354.5">.,,,,,,,,,,,,,,,,,....................</text>
  <text x="99.2" y="365.3">.,,,,,,,,,,,,,,,,,,.....................</text>
  <text x="99.2" y="376.1">.,,,,,,,,,,,,,,,,,.,,....................</text>
  <text x="93.0" y="386.9">.,,,,,,,,,,,,,,,,,,,,.......................</text>
  <text x="613.8" y="386.9">..</text>
  <text x="93.0" y="397.7">,,,,,,,,,,,,,,,,,,,,..........................</text>
  <text x="613.8" y="397.7">,:::,</text>
  <text x="99.2" y="408.5">,,,,,,:,,,,:,,,,,,,,,.........................</text>
  <text x="613.8" y="408.5">::::</text>
  <text x="155.0" y="419.3">.</text>
  <text x="167.4" y="419.3">.</text>
  <text x="179.8" y="419.3">....,,....,,,,,,.................</text>
  <text x="607.6" y="419.3">.;;:</text>
  <text x="260.4" y="430.1">.</text>
  <text x="272.8" y="430.1">..,,,,......,,,...</text>
  <text x="607.6" y="430.1">,;:</text>
  <text x="347.2" y="440.9">.</text>
  <text x="359.6" y="440.9">.</text>
  <text x="372.0" y="440.9">...,,,..........</text>
  <text x="607.6" y="440.9">::</text>
  <text x="440.2" y="451.7">.</text>
  <text x="452.6" y="451.7">.....,,,..........</text>
  <text x="607.6" y="451.7">,</text>
  <text x="533.2" y="462.5">.</text>
  <text x="545.6" y="462.5">.,::.,.:.</text>
  </g>
</svg>
